<svg xmlns="http://www.w3.org/2000/svg" width="36" height="36" viewBox="0 0 36 36" fill="none">
  <rect width="36" height="36" fill="#1a3a2a" />
  <polygon points="2,15 10,22 8,23"   fill="#c9a94a" opacity="0.36" />
  <polygon points="8,5  14,21 11,22"  fill="#c9a94a" opacity="0.63" />
  <polygon points="18,1 21,21 15,21"  fill="#c9a94a" />
  <polygon points="28,5  22,21 25,22" fill="#c9a94a" opacity="0.63" />
  <polygon points="34,15 26,22 28,23" fill="#c9a94a" opacity="0.36" />
  <rect x="9" y="21" width="18" height="2" rx="1" fill="#c9a94a" opacity="0.48" />
  <rect x="16.5" y="23" width="3" height="7" rx="1.5" fill="#c9a94a" opacity="0.82" />
  <path d="M18,30 Q13,31 11,34"  stroke="#c9a94a" stroke-width="1.4" stroke-linecap="round" opacity="0.42" />
  <path d="M18,30 L18,34"        stroke="#c9a94a" stroke-width="1.4" stroke-linecap="round" opacity="0.55" />
  <path d="M18,30 Q23,31 25,34"  stroke="#c9a94a" stroke-width="1.4" stroke-linecap="round" opacity="0.42" />
</svg>
